<svg width="400" height="400" viewBox="0 0 400 400" xmlns="http://www.w3.org/2000/svg">
  <rect width="400" height="400" rx="200" fill="#e0f2fe"/>
  <circle cx="200" cy="170" r="95" fill="#f5d7c0"/>
  <path d="M110 330c16-65 71-105 90-105 22 0 76 41 90 105" fill="#2563eb"/>
  <circle cx="163" cy="160" r="8" fill="#111827"/>
  <circle cx="237" cy="160" r="8" fill="#111827"/>
  <path d="M170 205c15 16 45 16 60 0" stroke="#111827" stroke-width="8" stroke-linecap="round" fill="none"/>
  <path d="M132 122c12-51 62-86 95-86 35 0 83 38 95 86" fill="#0f172a"/>
  <path d="M140 110c5-31 26-53 60-53 26 0 53 17 60 53" fill="#1e293b"/>
</svg>
